<svg xmlns="http://www.w3.org/2000/svg" width="40" height="40" viewBox="0 0 40 40"><path d="M20,0A20,20,0,1,0,40,20,20.023,20.023,0,0,0,20,0Zm0,37.838A17.835,17.835,0,1,1,37.838,20,17.781,17.781,0,0,1,20,37.838Z"/><path d="M70.171,100.607a2.119,2.119,0,0,1,2.151,2.151h2.207a4.358,4.358,0,1,0-8.715,0H68.02A2.119,2.119,0,0,1,70.171,100.607Z" transform="translate(-56.969 -85.135)"/><path d="M171.345,100.607a2.119,2.119,0,0,1,2.151,2.151H175.7a4.358,4.358,0,1,0-8.715,0h2.207A2.119,2.119,0,0,1,171.345,100.607Z" transform="translate(-144.547 -85.135)"/><path d="M80.892,186.2a12.2,12.2,0,0,0,10.29-5.808L89.4,179.2a10.032,10.032,0,0,1-9.639,4.731,10.138,10.138,0,0,1-7.3-4.731l-1.782,1.2a12.272,12.272,0,0,0,8.841,5.726A11.506,11.506,0,0,0,80.892,186.2Z" transform="translate(-60.93 -155.085)"/></svg>
