<svg xmlns="http://www.w3.org/2000/svg" width="40" height="40" viewBox="0 0 40 40"><path d="M20,0A20,20,0,1,0,40,20,20.023,20.023,0,0,0,20,0Zm0,38.261A18.261,18.261,0,1,1,38.261,20,18.281,18.281,0,0,1,20,38.261Z"/><path d="M98.592,133.185A2.592,2.592,0,1,0,96,130.592,2.6,2.6,0,0,0,98.592,133.185Zm0-3.457a.864.864,0,1,1-.864.864A.866.866,0,0,1,98.592,129.728Z" transform="translate(-85.555 -114.074)"/><path d="M226.592,128a2.592,2.592,0,1,0,2.592,2.592A2.6,2.6,0,0,0,226.592,128Zm0,3.457a.864.864,0,1,1,.864-.864A.866.866,0,0,1,226.592,131.457Z" transform="translate(-199.629 -114.074)"/><path d="M114.147,224H96.864a.864.864,0,0,0,0,1.728h17.283a.864.864,0,0,0,0-1.728Z" transform="translate(-85.505 -199.645)"/></svg>
